<svg xmlns="http://www.w3.org/2000/svg" fill="white" viewBox="0 0 24 24">
  <path d="M12 2.163c3.204 0 3.584.012 
  4.849.07 1.366.062 2.633.33 
  3.608 1.306.975.975 1.244 2.242 
  1.306 3.608.058 1.265.07 1.645.07 
  4.849s-.012 3.584-.07 
  4.849c-.062 1.366-.33 2.633-1.306 
  3.608-.975.975-2.242 1.244-3.608 
  1.306-1.265.058-1.645.07-4.849.07s-3.584-.012-4.849-.07c-1.366-.062-2.633-.33-3.608-1.306-.975-.975-1.244-2.242-1.306-3.608-.058-1.265-.07-1.645-.07-4.849s.012-3.584.07-4.849c.062-1.366.33-2.633 1.306-3.608.975-.975 
  2.242-1.244 3.608-1.306 1.265-.058 
  1.645-.07 4.849-.07zm0-2.163c-3.259 
  0-3.667.012-4.947.071-1.277.058-2.688.332-3.68 
  1.324-.992.992-1.266 2.403-1.324 
  3.68-.059 1.28-.071 1.688-.071 
  4.947s.012 3.667.071 
  4.947c.058 1.277.332 2.688 1.324 
  3.68.992.992 2.403 1.266 3.68 
  1.324 1.28.059 1.688.071 4.947.071s3.667-.012 
  4.947-.071c1.277-.058 2.688-.332 
  3.68-1.324.992-.992 1.266-2.403 
  1.324-3.68.059-1.28.071-1.688.071-4.947s-.012-3.667-.071-4.947c-.058-1.277-.332-2.688-1.324-3.68-.992-.992-2.403-1.266-3.68-1.324-1.28-.059-1.688-.071-4.947-.071zm0 
  5.838a6.162 6.162 0 1 0 0 12.324 
  6.162 6.162 0 0 0 0-12.324zm0 
  10.162a3.999 3.999 0 1 1 0-7.998 
  3.999 3.999 0 0 1 0 7.998zm6.406-11.845a1.44 
  1.44 0 1 0 0 2.881 1.44 1.44 0 0 0 0-2.881z"/>
</svg>
